<svg xmlns="http://www.w3.org/2000/svg" viewBox="0 0 128.08 135.25"><defs><style>.cls-1{fill:#172151;}.cls-1,.cls-2,.cls-3{fill-rule:evenodd;}.cls-2{fill:#a7a6a7;}.cls-3,.cls-4{fill:#262424;}</style></defs><title>Ativo 1</title><g id="Camada_2" data-name="Camada 2"><g id="Camada_1-2" data-name="Camada 1"><path class="cls-1" d="M.28,6.77h15.5c10.13,0,14.3,4.11,14.3,11.2,0,4.43-2.34,9.42-8.35,10.31v.13c7.91.76,10.57,6.39,10.57,10.88,0,9.8-7.28,13-17,13H.28V6.77ZM5.15,11h0V26.76H14c5.88,0,11.13-1.64,11.13-8.29C25.08,12.9,21.29,11,14.9,11Zm0,37.07H16.61c7.15,0,10.69-3.54,10.69-9,0-6.13-4.62-8-11.33-8H5.15Z"/><path class="cls-1" d="M55.29,6.77c10.69,0,15.5,5.06,15.5,13.09,0,5.7-2.34,10.13-7.66,12.66l10.25,19.8H68.07L58.39,33.66a22.92,22.92,0,0,1-4.87.44H45.86V52.32H41V6.77Zm-9.43,4.3h0V30h8.41c7.6,0,11.58-3.42,11.58-9.75,0-6.07-3.29-9.17-10.69-9.17Z"/><path class="cls-2" d="M.28,59.12H15a25.69,25.69,0,0,1,9,1.52A19.66,19.66,0,0,1,31,65a18.78,18.78,0,0,1,4.44,7,27.59,27.59,0,0,1,0,18.32,19.61,19.61,0,0,1-4.48,7.06,19,19,0,0,1-7,4.42A25.34,25.34,0,0,1,15,103.27H.28V59.12ZM24.47,70.44h0q-3.18-3.61-9.68-3.62H9.3V95.58h5.49q6.43,0,9.65-3.72t3.21-10.79Q27.65,74.07,24.47,70.44Z"/><path class="cls-2" d="M47.34,59.12H60.77q8.26,0,13,4t4.76,11.16a16,16,0,0,1-1.23,6.43,12.47,12.47,0,0,1-3.56,4.76,15.88,15.88,0,0,1-5.64,2.91,26,26,0,0,1-7.35,1H56.35v13.94h-9V59.12Zm19.74,9.43h0c-1.48-1.15-3.64-1.73-6.5-1.73H56.35V81.7h4.23c2.86,0,5-.58,6.5-1.73s2.2-3.06,2.2-5.71S68.55,69.71,67.08,68.55Z"/><path class="cls-2" d="M126.61,90.4a20.74,20.74,0,0,1-4.23,7.26,18.87,18.87,0,0,1-6.83,4.7,25.38,25.38,0,0,1-18.11,0,19.2,19.2,0,0,1-6.87-4.7A20.52,20.52,0,0,1,86.3,90.4,29.56,29.56,0,0,1,86.3,72a20.57,20.57,0,0,1,4.24-7.25A18.57,18.57,0,0,1,97.41,60a25.47,25.47,0,0,1,18.14,0,18.75,18.75,0,0,1,6.83,4.7A20.7,20.7,0,0,1,126.61,72a29.56,29.56,0,0,1,0,18.41Zm-30.16-.81h0a10.31,10.31,0,0,0,10,6.49q5.61,0,8.54-4T118,81.2q0-6.89-2.94-10.88a9.93,9.93,0,0,0-8.54-4q-5.67,0-8.61,4T95,81.2A20.29,20.29,0,0,0,96.45,89.59Z"/><path class="cls-1" d="M123.15,19.32h-1.47c0-.67.15-9.34-3-14.12a13.26,13.26,0,0,0-3.37-3.52A8.72,8.72,0,0,0,111.88.17a17.12,17.12,0,0,0-3.69-.12A15.31,15.31,0,0,0,101.58,2c-4.82,2.85-7.45,9.72-6.69,17.37H92.82c-3,0-4,1.27-4,4.69V45.68c0,3.42,1,6.64,4,6.64h30.33c3,0,4.93-3.22,4.93-6.64V24c0-3.42-1.88-4.69-4.93-4.69Zm-11.22,25h-7q.24-4.11.46-8.24a5.29,5.29,0,0,1-2.1-4.46A5,5,0,1,1,111.11,36q.42,4.13.82,8.24ZM99.18,19.38h0c0-12.88,4.72-15.76,9.4-15.76S118,6.5,118,19.38Z"/><polygon class="cls-3" points="3.52 110.98 3.52 118.73 2.54 118.73 2.54 110.98 0 110.98 0 110.12 6.09 110.12 6.09 110.98 3.52 110.98"/><polygon class="cls-3" points="16.03 117.78 16.03 118.63 11.19 118.63 11.19 110.11 15.88 110.11 15.88 110.94 12.17 110.94 12.17 113.84 15.3 113.84 15.3 114.66 12.17 114.66 12.17 117.78 16.03 117.78"/><path class="cls-3" d="M27.54,118.33a5.26,5.26,0,0,1-2.45.45c-2.46,0-3.87-1.61-3.87-4.36s1.53-4.49,4-4.49a6.43,6.43,0,0,1,2.16.36l-.07.9a5.29,5.29,0,0,0-2.12-.39c-1.95,0-2.94,1.28-2.94,3.58s1.15,3.52,2.95,3.52a4.88,4.88,0,0,0,2.32-.46Z"/><polygon class="cls-3" points="34.06 110.11 34.06 113.85 38.5 113.85 38.5 110.11 39.46 110.11 39.46 118.63 38.5 118.63 38.5 114.69 34.06 114.69 34.06 118.63 33.09 118.63 33.09 110.11 34.06 110.11"/><path class="cls-3" d="M46.38,110.11l3.44,4.9c.53.75,1,1.57,1.31,1.9h0c0-.3,0-.93,0-1.56v-5.24h1v8.52h-.9L47.7,113.7c-.55-.76-1.12-1.71-1.38-2h0c0,.37,0,1,0,1.56v5.41h-.93v-8.52Z"/><path class="cls-3" d="M57.69,114.42c0-2.73,1.53-4.49,4-4.49s4,1.64,4,4.37-1.45,4.49-4,4.49-4-1.64-4-4.37Zm1-.06h0c0,2.25,1.05,3.57,3,3.57s3-1.33,3-3.6-1-3.56-3-3.56S58.69,112.11,58.69,114.36Z"/><polygon class="cls-3" points="71.24 118.63 71.24 110.11 72.2 110.11 72.2 117.77 75.7 117.77 75.7 118.63 71.24 118.63"/><path class="cls-3" d="M80.28,114.42c0-2.73,1.53-4.49,4-4.49s4,1.64,4,4.37-1.46,4.49-4,4.49-4-1.64-4-4.37Zm1-.06h0c0,2.25,1,3.57,2.95,3.57s3-1.33,3-3.6-1-3.56-3-3.56S81.29,112.11,81.29,114.36Z"/><path class="cls-3" d="M97.5,114.51h2.85v3.76a8.11,8.11,0,0,1-2.89.52c-2.53,0-3.92-1.61-3.92-4.37s1.56-4.49,4-4.49a6.24,6.24,0,0,1,2.32.42l-.06.9a6,6,0,0,0-2.23-.45c-2,0-3,1.26-3,3.58s1.14,3.55,3,3.55a5.47,5.47,0,0,0,1.83-.25v-2.39H97.5Z"/><rect class="cls-4" x="106.15" y="110.11" width="0.98" height="8.51"/><polygon class="cls-3" points="117.9 117.78 117.9 118.63 113.07 118.63 113.07 110.11 117.75 110.11 117.75 110.94 114.05 110.94 114.05 113.84 117.18 113.84 117.18 114.66 114.05 114.66 114.05 117.78 117.9 117.78"/><path class="cls-3" d="M127.51,111.16a4.2,4.2,0,0,0-1.72-.36c-1,0-1.57.56-1.57,1.38,0,1.91,3.7,1.43,3.7,4.09,0,1.65-1.23,2.49-2.81,2.49a4.85,4.85,0,0,1-2-.36l0-1a4.68,4.68,0,0,0,2,.45c1.08,0,1.77-.53,1.77-1.53,0-2-3.68-1.56-3.68-4.08a2.33,2.33,0,0,1,2.62-2.32,4.91,4.91,0,0,1,1.72.29Z"/><path class="cls-3" d="M26.82,134.76a5.34,5.34,0,0,1-2.45.45c-2.46,0-3.87-1.61-3.87-4.35s1.53-4.49,4-4.49a6.49,6.49,0,0,1,2.16.36l-.08.9a5.26,5.26,0,0,0-2.11-.39c-1.95,0-2.95,1.27-2.95,3.57s1.16,3.53,3,3.53a4.64,4.64,0,0,0,2.31-.47Z"/><path class="cls-3" d="M32.22,130.86c0-2.74,1.53-4.49,4-4.49s4,1.63,4,4.37-1.45,4.48-4,4.48-4-1.63-4-4.36Zm1-.06h0c0,2.25,1.06,3.57,3,3.57s3-1.34,3-3.6-1-3.56-3-3.56S33.22,128.54,33.22,130.8Z"/><path class="cls-3" d="M47.09,126.55l3.44,4.89c.52.75,1,1.58,1.3,1.91h.05c0-.3,0-.93,0-1.56v-5.24h.94v8.51h-.9l-3.48-4.93c-.55-.76-1.12-1.71-1.38-2h0c0,.38,0,1,0,1.56v5.41h-.93v-8.51Z"/><path class="cls-3" d="M63.1,127.6a4.2,4.2,0,0,0-1.72-.36c-1,0-1.56.55-1.56,1.38,0,1.91,3.69,1.42,3.69,4.08,0,1.65-1.23,2.49-2.81,2.49a4.85,4.85,0,0,1-2-.36l.05-1a4.61,4.61,0,0,0,2,.45c1.08,0,1.77-.52,1.77-1.53,0-2-3.67-1.56-3.67-4.08a2.33,2.33,0,0,1,2.61-2.31,5.06,5.06,0,0,1,1.72.28Z"/><path class="cls-3" d="M75.66,126.55v5.3c0,2.19-1,3.36-3.22,3.36a2.71,2.71,0,0,1-3-1.91,7.88,7.88,0,0,1-.19-2.19v-4.56h1v5.3c0,1.65.63,2.53,2.24,2.53s2.19-.82,2.19-2.49v-5.34Z"/><polygon class="cls-3" points="81.86 135.06 81.86 126.55 82.82 126.55 82.82 134.2 86.32 134.2 86.32 135.06 81.86 135.06"/><polygon class="cls-3" points="93.44 127.4 93.44 135.06 92.47 135.06 92.47 127.4 89.96 127.4 89.96 126.55 95.98 126.55 95.98 127.4 93.44 127.4"/><rect class="cls-4" x="101.37" y="126.55" width="0.98" height="8.51"/><path class="cls-3" d="M109.61,126.55l3.43,4.89c.53.75,1,1.58,1.31,1.91h0c0-.3,0-.93,0-1.56v-5.24h1v8.51h-.9l-3.48-4.93c-.56-.76-1.13-1.71-1.38-2h0c0,.38,0,1,0,1.56v5.41h-.93v-8.51Z"/><path class="cls-3" d="M125.17,131H128v3.75a8.13,8.13,0,0,1-2.9.52c-2.52,0-3.91-1.6-3.91-4.36s1.56-4.49,4-4.49a6.31,6.31,0,0,1,2.33.42l-.06.9a6,6,0,0,0-2.24-.45c-2,0-3,1.26-3,3.57s1.14,3.56,3,3.56a5.47,5.47,0,0,0,1.83-.26v-2.38h-1.89Z"/><path class="cls-3" d="M8.14,129.51l-2.21,3.35c-1.06,1.59-1.82,2.39-3.32,2.39A2.27,2.27,0,0,1,.24,133c0-1.11.55-1.91,2.36-2.87,1.21-.74,1.76-1.12,1.76-1.93a1.2,1.2,0,0,0-1.2-1.28,1.19,1.19,0,0,0-1.25,1.33c0,.56.4,1.07,1.11,1.74l5.24,5.15H7.06l-4.73-4.66a3,3,0,0,1-1.25-2.21,2,2,0,0,1,2.1-2,1.94,1.94,0,0,1,2,2c0,.91-.54,1.48-2.1,2.4s-2,1.52-2,2.32a1.58,1.58,0,0,0,1.52,1.57c1,0,1.63-.38,2.75-2.12l1.81-2.84Z"/></g></g></svg>