<svg xmlns="http://www.w3.org/2000/svg" width="226" height="66.303" viewBox="0 0 226 66.303">
  <g id="Camada_2" data-name="Camada 2" transform="translate(0 0)">
    <g id="Camada_1" data-name="Camada 1" transform="translate(0 0)">
      <path id="Caminho_1881" data-name="Caminho 1881" d="M4.631,80.614V87.42H3.757V80.614H1.53V79.85H6.88v.764Z" transform="translate(-0.406 -21.168)" fill="#fff" fill-rule="evenodd"/>
      <path id="Caminho_1882" data-name="Caminho 1882" d="M0,6.38H14.323c9.355,0,13.228,3.8,13.228,10.347,0,4.093-2.168,8.716-7.724,9.554V26.4c7.349.7,9.767,5.879,9.767,10.054,0,9.069-6.724,12.052-15.727,12.052H0ZM4.5,10.3h0V24.856h8.128c5.438,0,10.289-1.521,10.289-7.658,0-5.144-3.505-6.9-9.414-6.9Zm0,34.261H15.088c6.607,0,9.9-3.27,9.9-8.326,0-5.673-4.262-7.43-10.465-7.43H4.5Z" transform="translate(0 -1.691)" fill="#fff" fill-rule="evenodd"/>
      <path id="Caminho_1883" data-name="Caminho 1883" d="M64.4,6.38c9.884,0,14.331,4.674,14.331,12.1,0,5.262-2.2,9.355-7.077,11.692L81.13,48.483H76.221L67.27,31.227a20.577,20.577,0,0,1-4.5.412H55.695V48.483h-4.5V6.38Zm-8.709,3.976h0V27.839H63.47c7.018,0,10.7-3.16,10.7-9,0-5.615-3.043-8.481-9.884-8.481Z" transform="translate(-15.396 -1.691)" fill="#fff" fill-rule="evenodd"/>
      <path id="Caminho_1884" data-name="Caminho 1884" d="M100.69,7.08h13.64A23.679,23.679,0,0,1,122.6,8.491a18.108,18.108,0,0,1,6.475,4.02,17.424,17.424,0,0,1,4.108,6.445,23.943,23.943,0,0,1,1.426,8.422,23.885,23.885,0,0,1-1.47,8.51,18.2,18.2,0,0,1-4.138,6.526,17.748,17.748,0,0,1-6.445,4.079,23.451,23.451,0,0,1-8.246,1.4H100.69Zm22.356,10.458h0q-2.94-3.351-8.951-3.351H109V40.768h5.071q5.953,0,8.922-3.439t2.94-9.965Q125.985,20.9,123.046,17.537Z" transform="translate(-30.354 -1.876)" fill="#fff" fill-rule="evenodd"/>
      <path id="Caminho_1885" data-name="Caminho 1885" d="M159.86,7.08h12.42q7.628,0,12.038,3.675t4.409,10.289a14.815,14.815,0,0,1-1.132,5.945A11.6,11.6,0,0,1,184.3,31.4a14.7,14.7,0,0,1-5.218,2.682,23.951,23.951,0,0,1-6.791.9h-4.079v12.9H159.86Zm18.248,8.709h0a9.632,9.632,0,0,0-6-1.6h-3.9V27.944h3.9q3.968,0,6-1.6c1.36-1.066,2.043-2.829,2.043-5.277S179.467,16.862,178.108,15.789Z" transform="translate(-48.05 -1.877)" fill="#fff" fill-rule="evenodd"/>
      <path id="Caminho_1886" data-name="Caminho 1886" d="M245.634,35.739a19.21,19.21,0,0,1-3.917,6.7,17.469,17.469,0,0,1-6.313,4.343,23.451,23.451,0,0,1-16.734,0,17.741,17.741,0,0,1-6.35-4.343,18.828,18.828,0,0,1-3.946-6.7A25.832,25.832,0,0,1,207,27.228a25.766,25.766,0,0,1,1.36-8.51,18.968,18.968,0,0,1,3.917-6.7,17.307,17.307,0,0,1,6.342-4.343,22.091,22.091,0,0,1,8.4-1.543,21.856,21.856,0,0,1,8.371,1.543,17.373,17.373,0,0,1,6.313,4.343,19.107,19.107,0,0,1,3.917,6.7,25.765,25.765,0,0,1,1.352,8.51,25.832,25.832,0,0,1-1.352,8.51ZM217.751,35h0a9.517,9.517,0,0,0,9.282,6,9.2,9.2,0,0,0,7.893-3.675q2.712-3.675,2.719-10.053t-2.719-10.054a9.164,9.164,0,0,0-7.893-3.675,9.294,9.294,0,0,0-7.959,3.675q-2.727,3.675-2.712,10.083a18.7,18.7,0,0,0,1.389,7.68Z" transform="translate(-62.635 -1.624)" fill="#fff" fill-rule="evenodd"/>
      <path id="Caminho_1887" data-name="Caminho 1887" d="M303.475,17.851h-1.36c0-.617.132-8.628-2.734-13.045a12.236,12.236,0,0,0-3.109-3.256,8.224,8.224,0,0,0-3.219-1.4,16.043,16.043,0,0,0-3.41-.11,14.11,14.11,0,0,0-6.114,1.764c-4.454,2.631-6.879,8.981-6.181,16.043h-1.911c-2.815,0-3.748,1.176-3.748,4.336V42.22c0,3.16.933,6.136,3.748,6.136h28.037c2.807,0,4.549-2.94,4.549-6.136V22.187c0-3.16-1.742-4.336-4.549-4.336ZM293.1,40.919h-6.423q.22-3.814.426-7.614a4.933,4.933,0,0,1-1.948-4.123A4.608,4.608,0,0,1,294.259,29a4.542,4.542,0,0,1-1.911,4.307l.735,7.614ZM281.339,17.91h0c0-11.905,4.365-14.566,8.687-14.566S298.72,6,298.72,17.91Z" transform="translate(-82.024 0)" fill="#fff" fill-rule="evenodd"/>
      <path id="Caminho_1888" data-name="Caminho 1888" d="M19.168,86.586v.742H14.92V79.84h4.115v.728H15.78v2.55h2.756v.72H15.78v2.749Z" transform="translate(-3.955 -21.165)" fill="#fff" fill-rule="evenodd"/>
      <path id="Caminho_1889" data-name="Caminho 1889" d="M32.476,87.008a4.7,4.7,0,0,1-2.153.4c-2.161,0-3.4-1.418-3.4-3.829s1.345-3.946,3.52-3.946a5.644,5.644,0,0,1,1.9.316l-.066.794a4.615,4.615,0,0,0-1.859-.345c-1.72,0-2.587,1.117-2.587,3.138s1.014,3.1,2.594,3.1a4.307,4.307,0,0,0,2.036-.4Z" transform="translate(-7.136 -21.109)" fill="#fff" fill-rule="evenodd"/>
      <path id="Caminho_1890" data-name="Caminho 1890" d="M41.965,79.84v3.285h3.91V79.84h.845v7.489h-.845V83.867h-3.91v3.461H41.12V79.84Z" transform="translate(-10.901 -21.165)" fill="#fff" fill-rule="evenodd"/>
      <path id="Caminho_1891" data-name="Caminho 1891" d="M56.682,79.84l3.02,4.307c.463.654.926,1.382,1.146,1.676h.044V79.84h.83v7.467h-.8l-3.065-4.336c-.492-.669-.992-1.47-1.213-1.793H56.6v6.129h-.8V79.84Z" transform="translate(-14.792 -21.165)" fill="#fff" fill-rule="evenodd"/>
      <path id="Caminho_1892" data-name="Caminho 1892" d="M70.54,83.576c0-2.4,1.352-3.946,3.483-3.946s3.513,1.47,3.513,3.836-1.279,3.946-3.513,3.946S70.54,85.943,70.54,83.576Zm.889-.059h0c0,1.984.919,3.145,2.594,3.145S76.64,85.487,76.64,83.5s-.911-3.131-2.616-3.131S71.429,81.541,71.429,83.518Z" transform="translate(-20.964 -21.109)" fill="#fff" fill-rule="evenodd"/>
      <path id="Caminho_1893" data-name="Caminho 1893" d="M86.76,87.329V79.84h.845v6.732h3.079v.757Z" transform="translate(-25.747 -21.165)" fill="#fff" fill-rule="evenodd"/>
      <path id="Caminho_1894" data-name="Caminho 1894" d="M97.57,83.576c0-2.4,1.352-3.946,3.491-3.946s3.505,1.47,3.505,3.836-1.279,3.946-3.505,3.946S97.57,85.943,97.57,83.576Zm.889-.059h0c0,1.984.919,3.145,2.6,3.145s2.609-1.176,2.609-3.167-.911-3.131-2.609-3.131S98.459,81.541,98.459,83.518Z" transform="translate(-28.996 -21.109)" fill="#fff" fill-rule="evenodd"/>
      <path id="Caminho_1895" data-name="Caminho 1895" d="M116.921,83.65h2.506v3.3a7.15,7.15,0,0,1-2.55.463c-2.2,0-3.447-1.411-3.447-3.836s1.374-3.946,3.557-3.946A5.49,5.49,0,0,1,119.03,80l-.037.794a5.277,5.277,0,0,0-1.97-.4c-1.756,0-2.668,1.11-2.668,3.138,0,2.139,1.007,3.131,2.631,3.131a4.806,4.806,0,0,0,1.609-.228V84.311h-1.661Z" transform="translate(-33.694 -21.109)" fill="#fff" fill-rule="evenodd"/>
      <rect id="Ret창ngulo_12" data-name="Ret창ngulo 12" width="0.86" height="7.481" transform="translate(90.433 58.675)" fill="#fff"/>
      <path id="Caminho_1896" data-name="Caminho 1896" d="M141.048,86.586v.742H136.8V79.84h4.115v.728H137.66v2.55h2.756v.72H137.66v2.749Z" transform="translate(-40.603 -21.165)" fill="#fff" fill-rule="evenodd"/>
      <path id="Caminho_1897" data-name="Caminho 1897" d="M152.68,80.723a3.711,3.711,0,0,0-1.521-.316c-.911,0-1.367.485-1.367,1.213,0,1.676,3.241,1.257,3.241,3.594a2.186,2.186,0,0,1-2.469,2.2A4.255,4.255,0,0,1,148.8,87.1v-.845a4.1,4.1,0,0,0,1.727.4c.955,0,1.558-.463,1.558-1.352,0-1.778-3.234-1.374-3.234-3.586a2.052,2.052,0,0,1,2.3-2.036,4.409,4.409,0,0,1,1.514.25Z" transform="translate(-44.164 -21.123)" fill="#fff" fill-rule="evenodd"/>
      <path id="Caminho_1898" data-name="Caminho 1898" d="M196.776,87.008a4.7,4.7,0,0,1-2.153.4c-2.161,0-3.4-1.418-3.4-3.829s1.345-3.946,3.528-3.946a5.622,5.622,0,0,1,1.9.316l-.066.794a4.615,4.615,0,0,0-1.859-.345c-1.712,0-2.587,1.117-2.587,3.138s1.014,3.1,2.6,3.1a4.255,4.255,0,0,0,2.028-.4Z" transform="translate(-56.79 -21.109)" fill="#fff" fill-rule="evenodd"/>
      <path id="Caminho_1899" data-name="Caminho 1899" d="M205.25,83.576c0-2.4,1.345-3.946,3.483-3.946s3.513,1.47,3.513,3.836-1.3,3.946-3.506,3.946-3.483-1.47-3.483-3.836Zm.882-.059h0c0,1.984.926,3.145,2.6,3.145s2.616-1.176,2.616-3.167-.911-3.131-2.616-3.131S206.132,81.541,206.132,83.518Z" transform="translate(-60.998 -21.109)" fill="#fff" fill-rule="evenodd"/>
      <path id="Caminho_1900" data-name="Caminho 1900" d="M222.732,79.84l3.02,4.307c.463.654.926,1.382,1.146,1.676h.044V79.84h.83v7.467h-.794l-3.057-4.336c-.492-.669-.992-1.47-1.22-1.793h-.037v6.129h-.816V79.84Z" transform="translate(-65.898 -21.165)" fill="#fff" fill-rule="evenodd"/>
      <path id="Caminho_1901" data-name="Caminho 1901" d="M240.81,80.723a3.711,3.711,0,0,0-1.521-.316c-.9,0-1.367.485-1.367,1.213,0,1.676,3.248,1.257,3.248,3.594a2.189,2.189,0,0,1-2.469,2.2,4.27,4.27,0,0,1-1.771-.316v-.845a4.116,4.116,0,0,0,1.734.4c.948,0,1.558-.463,1.558-1.352,0-1.778-3.234-1.374-3.234-3.586a2.045,2.045,0,0,1,2.293-2.036,4.483,4.483,0,0,1,1.521.25Z" transform="translate(-70.322 -21.123)" fill="#fff" fill-rule="evenodd"/>
      <path id="Caminho_1902" data-name="Caminho 1902" d="M255.219,79.824v4.659c0,1.925-.911,2.94-2.837,2.94A2.392,2.392,0,0,1,249.8,85.74a6.813,6.813,0,0,1-.169-1.925V79.824h.845v4.659c0,1.47.551,2.2,1.962,2.2s1.933-.735,1.933-2.2v-4.7Z" transform="translate(-74.134 -21.149)" fill="#fff" fill-rule="evenodd"/>
      <path id="Caminho_1903" data-name="Caminho 1903" d="M264.66,87.329V79.84h.845v6.732h3.079v.757Z" transform="translate(-80.16 -21.165)" fill="#fff" fill-rule="evenodd"/>
      <path id="Caminho_1904" data-name="Caminho 1904" d="M277.425,80.6v6.732h-.86V80.6h-2.2V79.84h5.291V80.6Z" transform="translate(-82.731 -21.165)" fill="#fff" fill-rule="evenodd"/>
      <rect id="Ret창ngulo_13" data-name="Ret창ngulo 13" width="0.86" height="7.481" transform="translate(201.66 58.675)" fill="#fff"/>
      <path id="Caminho_1905" data-name="Caminho 1905" d="M297.557,79.84l3.035,4.307c.463.654.926,1.382,1.154,1.676h.037V79.84h.838v7.467h-.794l-3.065-4.336c-.485-.669-.992-1.47-1.213-1.793h-.044v6.129h-.816V79.84Z" transform="translate(-88.651 -21.165)" fill="#fff" fill-rule="evenodd"/>
      <path id="Caminho_1906" data-name="Caminho 1906" d="M315.241,83.65h2.506v3.3a7.151,7.151,0,0,1-2.55.463c-2.2,0-3.447-1.411-3.447-3.836s1.374-3.946,3.557-3.946A5.49,5.49,0,0,1,317.35,80l-.051.794a5.276,5.276,0,0,0-1.97-.4c-1.756,0-2.668,1.11-2.668,3.138,0,2.139,1.007,3.131,2.631,3.131a4.806,4.806,0,0,0,1.609-.228V84.311h-1.661Z" transform="translate(-92.643 -21.109)" fill="#fff" fill-rule="evenodd"/>
      <path id="Caminho_1907" data-name="Caminho 1907" d="M176.46,82.137l-1.977,3c-.948,1.426-1.624,2.139-2.94,2.139a2.043,2.043,0,0,1-2.124-2.036c0-.985.5-1.7,2.109-2.557,1.088-.661,1.573-1,1.573-1.72a1.1,1.1,0,1,0-2.2.037c0,.5.36.955.992,1.558l4.7,4.578h-1.066l-4.211-4.145a2.69,2.69,0,0,1-1.11-1.97,1.778,1.778,0,0,1,1.845-1.83,1.727,1.727,0,0,1,1.793,1.764c0,.808-.485,1.323-1.874,2.146s-1.756,1.36-1.756,2.065a1.418,1.418,0,0,0,1.367,1.411c.889,0,1.47-.338,2.447-1.9l1.624-2.543Z" transform="translate(-50.354 -20.992)" fill="#fff" fill-rule="evenodd"/>
    </g>
  </g>
</svg>
